<?xml version="1.0" standalone="no"?><!DOCTYPE svg PUBLIC "-//W3C//DTD SVG 1.1//EN" "http://www.w3.org/Graphics/SVG/1.1/DTD/svg11.dtd"><svg t="1674988123062" class="icon" viewBox="0 0 1024 1024" version="1.1" xmlns="http://www.w3.org/2000/svg" p-id="10256" xmlns:xlink="http://www.w3.org/1999/xlink" width="200" height="200"><path d="M233.353846 955.076923a163.603692 163.603692 0 0 1-114.688-46.631385 163.682462 163.682462 0 0 1-49.742769-113.348923V320.118154A163.800615 163.800615 0 0 1 118.665846 206.769231a163.564308 163.564308 0 0 1 114.688-46.592h94.208v-16.108308a35.761231 35.761231 0 0 1 35.721846-35.761231 35.800615 35.800615 0 0 1 35.761231 35.721846v16.068924h187.076923v-16.029539a35.84 35.84 0 0 1 35.800616-35.761231 35.84 35.84 0 0 1 35.800615 35.761231v16.068923h93.499077a163.485538 163.485538 0 0 1 116.460308 48.364308A163.485538 163.485538 0 0 1 915.692308 324.923077v465.526154a164.706462 164.706462 0 0 1-164.43077 164.509538z m-93.499077-164.312615a93.617231 93.617231 0 0 0 93.499077 93.538461h517.868308a93.932308 93.932308 0 0 0 93.538461-93.617231v-326.537846h-704.984615zM140.406154 325.316923v67.544615H844.8l-0.512-67.820307a93.971692 93.971692 0 0 0-93.617231-93.617231h-93.538461v41.353846a35.800615 35.800615 0 0 1-35.721846 35.761231 35.800615 35.800615 0 0 1-35.761231-35.761231V231.463385h-187.076923v41.353846a35.84 35.84 0 0 1-35.761231 35.800615 35.84 35.84 0 0 1-35.800615-35.800615v-41.353846H233.472a93.656615 93.656615 0 0 0-93.065846 93.892923z m532.48 482.619077a39.384615 39.384615 0 0 1-39.384616-39.384615 39.384615 39.384615 0 0 1 39.384616-39.384616h88.576a39.384615 39.384615 0 0 1 39.384615 39.384616 39.384615 39.384615 0 0 1-39.384615 39.384615z m-236.544 0a39.384615 39.384615 0 0 1-39.384616-39.384615 39.384615 39.384615 0 0 1 39.384616-39.384616h118.153846a39.384615 39.384615 0 0 1 39.384615 39.384616 39.384615 39.384615 0 0 1-39.384615 39.384615z m-206.848 0a39.384615 39.384615 0 0 1-39.384616-39.384615 39.384615 39.384615 0 0 1 39.384616-39.384616H318.227692a39.384615 39.384615 0 0 1 39.384616 39.384616 39.384615 39.384615 0 0 1-39.384616 39.384615z m443.352615-177.230769a39.384615 39.384615 0 0 1-39.384615-39.384616 39.384615 39.384615 0 0 1 39.384615-39.384615h88.576a39.384615 39.384615 0 0 1 39.384616 39.384615 39.384615 39.384615 0 0 1-39.384616 39.384616z m-236.544 0a39.384615 39.384615 0 0 1-39.384615-39.384616 39.384615 39.384615 0 0 1 39.384615-39.384615h118.153846a39.384615 39.384615 0 0 1 39.384616 39.384615 39.384615 39.384615 0 0 1-39.384616 39.384616z m-206.769231 0a39.384615 39.384615 0 0 1-39.384615-39.384616 39.384615 39.384615 0 0 1 39.384615-39.384615h88.733539a39.384615 39.384615 0 0 1 39.384615 39.384615 39.384615 39.384615 0 0 1-39.384615 39.384616z" fill="#009A9A" p-id="10257"></path></svg>