<?xml version="1.0" standalone="no"?><!DOCTYPE svg PUBLIC "-//W3C//DTD SVG 1.1//EN" "http://www.w3.org/Graphics/SVG/1.1/DTD/svg11.dtd"><svg t="1674461930866" class="icon" viewBox="0 0 1024 1024" version="1.1" xmlns="http://www.w3.org/2000/svg" p-id="10883" xmlns:xlink="http://www.w3.org/1999/xlink" width="200" height="200"><path d="M509.51 954.88c-43.43 0-83.66-17.32-113.27-48.78-29.48-31.31-45.71-74.23-45.71-120.86v-40.61H668.5v40.61c0 46.63-16.23 89.55-45.71 120.86-29.63 31.46-69.85 48.78-113.28 48.78z m-69.95-129.03c12.28 29.13 38.01 47.81 69.95 47.81s57.67-18.68 69.95-47.81h-139.9z" fill="#F7B52C" p-id="10884"></path><path d="M808.94 603.28a83.93 83.93 0 0 1-36.41-69.19l0.02-201.9c0-72.29-29.51-138.07-77.16-185.72-51.82-51.53-124.22-81.84-203.85-76.57-139.42 9.24-245.01 130.76-245.03 270.48l-0.02 193.09a83.94 83.94 0 0 1-36.17 69.01l-84.15 58.23A83.976 83.976 0 0 0 90 729.74v94.85h839.01v-94.67c0-27.65-13.62-53.53-36.41-69.18l-83.66-57.46z" fill="#F7B52C" p-id="10885"></path><path d="M350.86 441.7c-15.49 0-28.72-11.78-30.22-27.51-4.52-47.54 5.14-94.98 27.96-137.21 23.05-42.66 57.92-76.95 100.85-99.17 14.91-7.72 33.24-1.89 40.96 13.02s1.89 33.24-13.02 40.96c-64.45 33.36-103.13 104.35-96.25 176.65 1.59 16.71-10.67 31.54-27.37 33.13-0.97 0.09-1.95 0.13-2.91 0.13z" fill="#FFFFFF" p-id="10886"></path></svg>